<svg xmlns="http://www.w3.org/2000/svg" viewBox="0 0 192.78 35.21"><defs><style>.cls-1{fill:#fff;}</style></defs><g id="Layer_2" data-name="Layer 2"><g id="Layer_1-2" data-name="Layer 1"><path class="cls-1" d="M8.89,35.21H0v-2l.7-.35a2,2,0,0,0,1.19-2V4.48A2.1,2.1,0,0,0,.7,2.38L0,2.1V0H18.13a12.06,12.06,0,0,1,6.09,1.61A11.85,11.85,0,0,1,28.63,6a11.53,11.53,0,0,1,1.61,6,11.75,11.75,0,0,1-1.61,6,11.47,11.47,0,0,1-4.41,4.33,12.13,12.13,0,0,1-6.09,1.58H6.93v7a2,2,0,0,0,1.26,2l.7.35Zm-2-31.36v16H15.4a17.6,17.6,0,0,0,2.24-.14,9.35,9.35,0,0,0,3.08-.91A7.88,7.88,0,0,0,23.87,16a8,8,0,0,0,1.05-3.78v-.49a8.09,8.09,0,0,0-1.05-3.85A7.77,7.77,0,0,0,20.65,5a11.53,11.53,0,0,0-3-.91l-.77-.14h-.56a1.92,1.92,0,0,0-.49-.07Z"/><path class="cls-1" d="M79.1,33.18v2H70.49v-2l.7-.35A3.38,3.38,0,0,0,72.42,32a1.85,1.85,0,0,0,.52-1.16V21.56a53.69,53.69,0,0,1-15.47-2.1,34,34,0,0,0-12.11-1.54V30.8A1.85,1.85,0,0,0,45.88,32a3.3,3.3,0,0,0,1.23.87l.7.35v2H39.2v-2l.7-.35A3.37,3.37,0,0,0,41.05,32a1.81,1.81,0,0,0,.53-1.16V4.48a1.92,1.92,0,0,0-.53-1.19,3.15,3.15,0,0,0-1.15-.91l-.7-.28V0h8.61V2.1l-.7.28a4.5,4.5,0,0,0-.81.53,3,3,0,0,0-.66.77,1.54,1.54,0,0,0-.28.8v9.24a46.68,46.68,0,0,1,13.86,1.54,48.39,48.39,0,0,0,13.72,2.1V4.48a2,2,0,0,0-.52-1.19,3.16,3.16,0,0,0-1.23-.91l-.7-.28V0H79.1V2.1l-.7.28a3.15,3.15,0,0,0-1.15.91,1.87,1.87,0,0,0-.53,1.19V30.8A1.76,1.76,0,0,0,77.25,32a3.37,3.37,0,0,0,1.15.87Z"/><path class="cls-1" d="M97,33.18v2H88.06v-2l.7-.35a2,2,0,0,0,1.19-2V4.48a2.1,2.1,0,0,0-1.19-2.1l-.7-.28V0H97V2.1l-.7.28A2.08,2.08,0,0,0,95,4.48V30.8a2,2,0,0,0,1.26,2Z"/><path class="cls-1" d="M135.73,29.05l-.56,6.16H105.91v-2l.7-.35a2,2,0,0,0,1.19-2V4.48a2.1,2.1,0,0,0-1.19-2.1l-.7-.28V0h8.89V2.1l-.7.28a2.08,2.08,0,0,0-1.26,2.1v27h18.34a1.12,1.12,0,0,0,.45-.1,2.25,2.25,0,0,0,.49-.29,2.22,2.22,0,0,0,.46-.41c.14-.17.27-.33.38-.49l.32-.46.28-.7Z"/><path class="cls-1" d="M153.58,33.18v2h-8.89v-2l.7-.35a2,2,0,0,0,1.19-2V4.48a2.1,2.1,0,0,0-1.19-2.1l-.7-.28V0h8.89V2.1l-.7.28a2.08,2.08,0,0,0-1.26,2.1V30.8a2,2,0,0,0,1.26,2Z"/><path class="cls-1" d="M171.43,33.18v2h-8.89v-2l.7-.35a2,2,0,0,0,1.19-2V4.48a2.1,2.1,0,0,0-1.19-2.1l-.7-.28V0h18.13a12.17,12.17,0,0,1,10.5,6,11.53,11.53,0,0,1,1.61,6,11.75,11.75,0,0,1-1.61,6,11.61,11.61,0,0,1-4.41,4.33,12.13,12.13,0,0,1-6.09,1.58h-11.2v7a2,2,0,0,0,1.26,2Zm-2-29.33v16h8.47a17.6,17.6,0,0,0,2.24-.14,8.68,8.68,0,0,0,3-.91A7.83,7.83,0,0,0,186.41,16a8,8,0,0,0,1.05-3.78v-.49a8.09,8.09,0,0,0-1.05-3.85A7.83,7.83,0,0,0,183.19,5a11.53,11.53,0,0,0-3-.91l-.77-.14h-.56a1.92,1.92,0,0,0-.49-.07Z"/></g></g></svg>